<svg width="239" height="60" viewBox="0 0 239 60" fill="none" xmlns="http://www.w3.org/2000/svg">
<path d="M7.0155 44.5143C7.0155 46.1469 6.68028 47.2882 6.02018 47.9048C5.33596 48.5432 4.45544 48.8543 3.32924 48.8543C2.61173 48.8543 1.77253 48.7751 0.836901 48.619L0 48.4789V59.3888L0.586635 59.4979C1.4729 59.6644 2.33047 59.7907 3.13293 59.8733C3.94342 59.9571 4.94219 59.9996 6.10283 59.9996C10.8935 59.9996 14.5878 58.794 17.0813 56.415C19.5828 54.0268 20.8525 50.5146 20.8525 45.4936V0.963028H7.0155V44.5143Z" fill="white"/>
<path d="M53.5117 26.8322C53.5117 29.5625 52.8769 31.6292 51.6244 32.976C50.3673 34.3274 48.6855 34.9842 46.4813 34.9842C44.2851 34.9842 42.6481 34.3331 41.4748 32.9921C40.2935 31.643 39.6942 29.5705 39.6942 26.8322V0.963882H25.8584V30.8083C25.8584 36.0267 27.2234 39.3816 29.9166 42.3853C32.6282 45.4141 36.4993 46.9492 41.4231 46.9492C43.0602 46.9492 44.5584 46.7449 45.8763 46.343C47.1839 45.9411 48.395 45.3889 49.4776 44.7C50.5498 44.0168 51.5383 43.2234 52.4154 42.3405C52.7931 41.9604 53.1593 41.678 53.5117 41.2784V46.9469H67.3487V0.963882H53.5117V26.8322Z" fill="white"/>
<path d="M124.791 0.963306C121.699 0.963306 118.901 1.58332 116.473 2.80727C114.333 3.8854 112.348 5.43313 110.562 7.41717C109.402 5.49628 107.849 3.96807 105.938 2.86697C103.743 1.60399 101.111 0.963306 98.1166 0.963306C96.4772 0.963306 94.9664 1.16768 93.6267 1.56954C92.2881 1.9714 91.062 2.52482 89.9806 3.21372C88.9061 3.89803 87.9165 4.69141 87.0417 5.57206C86.6651 5.95211 86.2989 6.34134 85.9465 6.7409V0.963306H72.1095V46.9464H85.9465V21.8933C85.9465 19.1584 86.5572 17.0882 87.7615 15.7391C88.9635 14.3946 90.5891 13.7413 92.7324 13.7413C94.8654 13.7413 96.4462 14.3889 97.5655 15.723C98.6986 17.0744 99.2738 19.1503 99.2738 21.8933V46.9464H113.111V21.8933C113.111 19.1584 113.722 17.0882 114.926 15.7391C116.127 14.3946 117.753 13.7413 119.897 13.7413C122.03 13.7413 123.61 14.3889 124.73 15.723C125.863 17.0744 126.438 19.1503 126.438 21.8933V46.9464H140.274V17.7541C140.274 12.3118 138.889 8.10952 136.158 5.2632C133.419 2.41 129.594 0.963306 124.791 0.963306Z" fill="white"/>
<path d="M223.785 0.964085L214.752 30.6041L205.331 0.962936H190.628L208.023 46.9494C207.583 47.7646 206.423 48.3307 205.96 48.6326C205.456 48.961 204.724 49.1275 203.782 49.1275C203.05 49.1275 202.237 48.9759 201.365 48.6774C200.466 48.3686 199.62 47.822 198.85 47.3605L198.165 46.9494L191.837 54.2093C191.837 54.2093 193.847 56.1635 194.491 56.7227C195.906 57.9512 197.297 58.593 199.082 59.151C200.886 59.7148 202.989 59.9995 205.332 59.9995C207.242 59.9995 209.664 59.7699 211.143 59.3152C212.65 58.8514 214.013 58.0878 215.199 57.0476C216.365 56.0234 217.441 54.6892 218.401 53.0818C219.344 51.4996 220.241 50.1528 221.068 47.8932L238.235 0.964085H223.785Z" fill="white"/>
<path d="M190.114 14.3476C188.97 11.4749 187.661 9.00862 185.755 7.01769C183.844 5.02332 181.62 3.4974 179.146 2.48471C176.677 1.47547 174.088 0.963394 171.451 0.963394C168.069 0.963394 165.211 1.66607 162.958 3.05306C161.317 4.06345 159.84 5.29199 158.547 6.71802V0.963394H144.71V60H158.547V41.5776C159.803 42.8084 161.255 43.9233 162.882 44.9027C165.133 46.261 168.016 46.9487 171.451 46.9487C174.142 46.9487 176.758 46.4367 179.227 45.4274C181.704 44.4136 183.915 42.8877 185.8 40.8898C187.676 38.9024 188.971 36.4384 190.114 33.5645V34.3774C191.258 31.5036 191.837 28.1612 191.837 24.4446V24.2816C191.837 20.5661 191.258 17.2238 190.114 14.3476ZM169.748 34.8562C163.562 34.8562 158.546 29.8399 158.546 23.6524C158.546 17.4649 163.562 12.4497 169.748 12.4497C175.935 12.4497 180.95 17.4649 180.95 23.6524C180.95 29.8399 175.935 34.8562 169.748 34.8562Z" fill="white"/>
</svg>
